<svg width="357px" height="568px" viewBox="0 0 357 568" version="1.1" xmlns="http://www.w3.org/2000/svg" xmlns:xlink="http://www.w3.org/1999/xlink">  <title>logo</title> <desc>Created with Sketch.</desc> <g id="Page-1" stroke="none" stroke-width="1" fill="none" fill-rule="evenodd"> <g id="logo" fill="#000000"> <path d="M53.14,263.43 L62.95,263.43 C65.46,263.43 67.49,261.4 67.49,258.89 L67.49,251.08 C67.49,240.79 64.98,232.88 59.95,227.37 C54.92,221.86 47.5,219.1 37.69,219.1 C27.88,219.1 20.46,221.86 15.44,227.37 C10.41,232.88 7.9,240.79 7.9,251.08 L7.9,317.21 C7.9,327.51 10.41,335.41 15.44,340.92 C20.46,346.43 27.88,349.19 37.69,349.19 C47.5,349.19 54.92,346.44 59.95,340.92 C64.97,335.41 67.49,327.51 67.49,317.21 L67.49,281.42 C67.49,278.91 65.46,276.88 62.95,276.88 L44.06,276.88 C41.55,276.88 39.52,278.91 39.52,281.42 L39.52,290.5 C39.52,293.01 41.55,295.04 44.06,295.04 C46.57,295.04 48.6,297.07 48.6,299.58 L48.6,318.59 C48.6,323.22 47.66,326.44 45.78,328.27 C43.9,330.1 41.39,331.01 38.24,331.01 C35.09,331.01 32.58,330.1 30.7,328.28 C28.82,326.46 27.88,323.24 27.88,318.63 L27.88,249.83 C27.88,245.22 28.82,241.97 30.7,240.09 C32.58,238.21 35.09,237.27 38.24,237.27 C41.39,237.27 43.9,238.21 45.78,240.09 C47.66,241.97 48.6,245.21 48.6,249.81 L48.6,258.89 C48.6,261.39 50.64,263.43 53.14,263.43 Z" id="Path"></path> <path d="M93.84,227.37 C88.63,232.88 86.03,240.79 86.03,251.08 L86.03,317.21 C86.03,327.51 88.64,335.41 93.84,340.92 C99.05,346.43 106.55,349.19 116.36,349.19 C126.17,349.19 133.68,346.44 138.89,340.92 C144.1,335.41 146.7,327.51 146.7,317.21 L146.7,251.08 C146.7,240.79 144.09,232.88 138.89,227.37 C133.68,221.86 126.17,219.1 116.36,219.1 C106.55,219.1 99.04,221.86 93.84,227.37 Z M126.72,249.8 L126.72,318.47 C126.72,323.07 125.78,326.31 123.9,328.19 C122.02,330.07 119.51,331.01 116.36,331.01 C113.21,331.01 110.7,330.07 108.82,328.19 C106.94,326.31 106,323.08 106,318.47 L106,249.8 C106,245.2 106.94,241.96 108.82,240.08 C110.7,238.2 113.21,237.26 116.36,237.26 C119.51,237.26 122.02,238.2 123.9,240.08 C125.78,241.96 126.72,245.2 126.72,249.8 Z" id="Shape" fill-rule="nonzero"></path> <path d="M171.41,220.55 C168.9,220.55 166.87,222.58 166.87,225.09 L166.87,343.17 C166.87,345.68 168.9,347.71 171.41,347.71 L182.31,347.71 C184.82,347.71 186.85,345.68 186.85,343.17 L186.85,225.1 C186.85,222.59 184.82,220.56 182.31,220.56 L171.41,220.56 L171.41,220.55 Z" id="Path"></path> <path d="M224.09,220.55 L213.19,220.55 C210.68,220.55 208.65,222.58 208.65,225.09 L208.65,343.17 C208.65,345.68 210.68,347.71 213.19,347.71 L224.09,347.71 C226.6,347.71 228.63,345.68 228.63,343.17 L228.63,309.79 C228.63,309.05 228.81,308.32 229.16,307.66 L230.13,305.84 C231.96,302.4 236.99,302.71 238.38,306.34 L253.13,344.8 C253.8,346.56 255.49,347.72 257.37,347.72 L268.1,347.72 C271.3,347.72 273.5,344.49 272.33,341.51 L247.72,279.1 C247.25,277.91 247.3,276.58 247.87,275.43 L271.57,227.09 C273.05,224.07 270.85,220.55 267.49,220.55 L257.68,220.55 C255.92,220.55 254.32,221.57 253.57,223.16 L229,275.59 L228.64,275.59 L228.64,225.09 C228.63,222.59 226.6,220.55 224.09,220.55 Z" id="Path"></path> <path d="M296.03,227.37 C290.82,232.88 288.22,240.79 288.22,251.08 L288.22,317.21 C288.22,327.51 290.83,335.41 296.03,340.92 C301.24,346.43 308.74,349.19 318.55,349.19 C328.36,349.19 335.87,346.44 341.08,340.92 C346.29,335.41 348.89,327.51 348.89,317.21 L348.89,251.08 C348.89,240.79 346.28,232.88 341.08,227.37 C335.87,221.86 328.36,219.1 318.55,219.1 C308.74,219.1 301.23,221.86 296.03,227.37 Z M328.91,249.8 L328.91,318.47 C328.91,323.07 327.97,326.31 326.09,328.19 C324.21,330.07 321.7,331.01 318.55,331.01 C315.4,331.01 312.89,330.07 311.01,328.19 C309.13,326.31 308.19,323.08 308.19,318.47 L308.19,249.8 C308.19,245.2 309.13,241.96 311.01,240.08 C312.89,238.2 315.4,237.26 318.55,237.26 C321.7,237.26 324.21,238.2 326.09,240.08 C327.97,241.96 328.91,245.2 328.91,249.8 Z" id="Shape" fill-rule="nonzero"></path> <path d="M331.35,375.18 L269.12,375.18 C254.58,375.18 242.58,385.81 241.22,399.94 C241.17,400.52 241.12,401.02 241.09,429.95 C241.08,433.14 239.77,436.18 237.39,438.52 C234.89,440.98 231.52,442.32 227.57,442.32 C227.42,442.32 227.25,442.32 227.08,442.32 C223.42,442.32 220.05,440.98 217.55,438.52 C215.17,436.18 213.86,433.14 213.85,429.94 L213.8,403.26 C213.77,388.04 200.22,375.18 184.22,375.18 L172.04,375.18 C156.54,375.18 143.92,387.78 143.91,403.28 L143.84,468.48 C143.84,471.67 142.52,474.71 140.14,477.05 C137.59,479.56 134.15,480.84 130.07,480.85 C126.25,480.86 122.86,479.56 120.31,477.05 C117.93,474.71 116.62,471.67 116.61,468.49 C116.58,401.01 116.53,400.55 116.47,399.91 C115.13,386.04 102.79,375.17 88.38,375.17 L25.48,375.17 C18.54,375.17 11.85,378.08 7.13,383.16 C2.35,388.3 -0.1,395.28 0.41,402.31 C3.9,450.57 19.24,489.41 46.01,517.74 C77.26,550.82 121.82,567.6 178.45,567.6 C235.06,567.6 279.61,550.83 310.86,517.75 C337.63,489.42 352.97,450.59 356.46,402.32 C356.97,395.29 354.52,388.31 349.74,383.17 C344.98,378.09 338.29,375.18 331.35,375.18 Z M296.28,504 C268.95,532.92 229.3,547.59 178.41,547.59 C127.51,547.59 87.85,532.92 60.52,504 C37,479.12 23.48,444.42 20.34,400.88 C20.19,398.82 21.16,397.44 21.75,396.8 C22.31,396.2 23.54,395.19 25.45,395.19 L88.35,395.19 C92.39,395.19 95.96,398.01 96.48,401.54 C96.52,406.05 96.55,443.5 96.56,468.51 C96.57,477.1 100.01,485.2 106.24,491.33 C112.64,497.62 121.19,500.99 130.03,500.87 C139.12,501.04 147.73,497.63 154.13,491.33 C160.36,485.21 163.8,477.1 163.81,468.51 L163.88,403.31 C163.88,398.84 167.53,395.2 172,395.2 L184.18,395.2 C189,395.2 193.74,399.22 193.75,403.31 L193.8,429.99 C193.81,438.58 197.25,446.69 203.48,452.81 C209.88,459.1 218.43,462.5 227.27,462.35 C236.36,462.48 244.98,459.11 251.38,452.81 C257.61,446.69 261.05,438.58 261.06,429.99 C261.07,420.14 261.1,404.29 261.14,401.58 C261.64,397.99 265.07,395.21 269.08,395.21 L331.31,395.21 C333.23,395.21 334.45,396.22 335.02,396.82 C335.61,397.46 336.58,398.83 336.43,400.9 C333.32,444.42 319.8,479.12 296.28,504 Z" id="Shape" fill-rule="nonzero"></path> <path d="M25.45,193.1 L331.34,193.1 C338.28,193.1 344.97,190.19 349.7,185.1 C354.48,179.96 356.93,172.98 356.42,165.95 C352.93,117.69 337.59,78.85 310.82,50.53 C279.57,17.45 235.01,0.67 178.39,0.67 C121.78,0.67 77.22,17.44 45.97,50.53 C19.2,78.86 3.85,117.69 0.37,165.96 C-0.14,172.99 2.31,179.97 7.09,185.11 C11.83,190.19 18.52,193.1 25.45,193.1 Z M60.52,64.27 C87.84,35.35 127.5,20.68 178.39,20.68 C229.29,20.68 268.95,35.35 296.28,64.27 C319.8,89.16 333.32,123.85 336.47,167.39 C336.62,169.45 335.65,170.83 335.06,171.47 C334.5,172.07 333.27,173.08 331.35,173.08 L25.45,173.08 C23.53,173.08 22.31,172.07 21.75,171.47 C21.16,170.83 20.19,169.46 20.34,167.39 C23.48,123.86 37,89.16 60.52,64.27 Z" id="Shape" fill-rule="nonzero"></path> </g> </g> </svg>